# xmcd
#
# Track frame offsets: 
#        150
#        16757
#        33142
#        48032
#        65785
#        78365
#        97235
#        113857
#        126920
#        141027
#        155160
#        175210
#        184925
#        201580
#        218750
#        227797
#
# Disc length: 3225 seconds
#
# Revision: 5
# Processed by: cddbd v1.5.2PL0 Copyright (c) Steve Scherf et al.
# Submitted via: ExactAudioCopyFreeDBPlugin 1.0
#
DISCID=e40c9710
DTITLE=Treat Her Right - The Anthology 1985-1990
DYEAR=1998
DGENRE=Blues
TTITLE0=I Think She Likes Me
TTITLE1=Don't Look Back
TTITLE2=You Don't Need Money
TTITLE3=Jesus Everyday
TTITLE4=An Honest Job
TTITLE5=Where Did All the Girls Come From?
TTITLE6=Trail of Tears
TTITLE7=Big Medicine
TTITLE8=Marie
TTITLE9=Hit a Man
TTITLE10=No Reason
TTITLE11=Tied to the Tracks
TTITLE12=Hank
TTITLE13=King of Beers
TTITLE14=I'm Here to Get My Baby Out of Jail
TTITLE15=Standing By Your Window
EXTD=
EXTT0=
EXTT1=
EXTT2=
EXTT3=
EXTT4=
EXTT5=
EXTT6=
EXTT7=
EXTT8=
EXTT9=
EXTT10=
EXTT11=
EXTT12=
EXTT13=
EXTT14=
EXTT15=
PLAYORDER=
